<svg width="32" height="32" viewBox="0 0 32 32" fill="none" xmlns="http://www.w3.org/2000/svg">
<circle cx="16" cy="16" r="16" fill="#7A6C6A"/>
<path d="M11.8555 16.5596H6.125V14.7139H11.8555V16.5596ZM13.5957 20.3389L18.0869 16.0146C18.5732 15.5225 18.9512 15.1182 19.2207 14.8018C19.4902 14.4854 19.6953 14.1748 19.8359 13.8701C19.9824 13.5596 20.0557 13.2314 20.0557 12.8857C20.0557 12.5049 19.959 12.168 19.7656 11.875C19.5723 11.582 19.3086 11.3564 18.9746 11.1982C18.6465 11.0342 18.2744 10.9521 17.8584 10.9521C17.4307 10.9521 17.0557 11.04 16.7334 11.2158C16.4111 11.3857 16.1592 11.6318 15.9775 11.9541C15.8018 12.2705 15.7139 12.6426 15.7139 13.0703H13.543C13.5371 12.2793 13.7188 11.585 14.0879 10.9873C14.457 10.3838 14.9727 9.91797 15.6348 9.58984C16.2969 9.26172 17.0498 9.09766 17.8936 9.09766C18.7432 9.09766 19.4961 9.25586 20.1523 9.57227C20.8145 9.88867 21.3271 10.3252 21.6904 10.8818C22.0596 11.4385 22.2441 12.0713 22.2441 12.7803C22.2383 13.2725 22.1416 13.7471 21.9541 14.2041C21.7725 14.6611 21.4502 15.168 20.9873 15.7246C20.5303 16.2812 19.8857 16.9521 19.0537 17.7373L16.7861 19.9873V20.084H22.4375V22H13.6045L13.5957 20.3389Z" fill="white"/>
</svg>
