<svg width="32" height="32" viewBox="0 0 32 32" fill="none" xmlns="http://www.w3.org/2000/svg">
<circle cx="16" cy="16" r="16" fill="#999999"/>
<path d="M15.6777 23.1758C12.9531 23.1758 11.0195 21.6992 10.9668 19.5547H13.2695C13.3398 20.5742 14.3594 21.2422 15.6777 21.2422C17.084 21.2422 18.0859 20.4688 18.0859 19.3438C18.0859 18.2012 17.1016 17.375 15.4492 17.375H14.3066V15.6172H15.4492C16.8027 15.6172 17.752 14.8613 17.7344 13.7539C17.752 12.6816 16.9434 11.9609 15.6953 11.9609C14.5 11.9609 13.4629 12.6289 13.4277 13.7012H11.2305C11.2832 11.5566 13.2168 10.0977 15.7129 10.0977C18.2969 10.0977 19.9668 11.6797 19.9492 13.6309C19.9668 15.0547 19.0176 16.0918 17.6289 16.373V16.4785C19.4219 16.7246 20.4414 17.8672 20.4238 19.4668C20.4414 21.6113 18.4375 23.1758 15.6777 23.1758Z" fill="white"/>
</svg>
