<svg width="32" height="32" viewBox="0 0 32 32" fill="none" xmlns="http://www.w3.org/2000/svg">
<circle cx="16" cy="16" r="16" fill="#999999"/>
<path d="M12.8555 14.7227V16.5684H7.125V14.7227H12.8555ZM19.5352 22.1758C16.8105 22.1758 14.877 20.6992 14.8242 18.5547H17.127C17.1973 19.5742 18.2168 20.2422 19.5352 20.2422C20.9414 20.2422 21.9434 19.4688 21.9434 18.3438C21.9434 17.2012 20.959 16.375 19.3066 16.375H18.1641V14.6172H19.3066C20.6602 14.6172 21.6094 13.8613 21.5918 12.7539C21.6094 11.6816 20.8008 10.9609 19.5527 10.9609C18.3574 10.9609 17.3203 11.6289 17.2852 12.7012H15.0879C15.1406 10.5566 17.0742 9.09766 19.5703 9.09766C22.1543 9.09766 23.8242 10.6797 23.8066 12.6309C23.8242 14.0547 22.875 15.0918 21.4863 15.373V15.4785C23.2793 15.7246 24.2988 16.8672 24.2812 18.4668C24.2988 20.6113 22.2949 22.1758 19.5352 22.1758Z" fill="white"/>
</svg>
