<svg width="32" height="32" viewBox="0 0 32 32" fill="none" xmlns="http://www.w3.org/2000/svg">
<circle cx="16" cy="16" r="16" fill="#7A6C6A"/>
<path d="M12.8555 16.5596H7.125V14.7139H12.8555V16.5596ZM19.5352 22.1758C18.6387 22.1758 17.8359 22.0234 17.127 21.7188C16.4238 21.4141 15.8672 20.9863 15.457 20.4355C15.0527 19.8789 14.8418 19.249 14.8242 18.5459H17.1357C17.1533 18.8857 17.2705 19.1846 17.4873 19.4424C17.7041 19.6943 17.9883 19.8906 18.3398 20.0312C18.6914 20.1719 19.0869 20.2422 19.5264 20.2422C19.9951 20.2422 20.4141 20.1631 20.7832 20.0049C21.1523 19.8467 21.4395 19.624 21.6445 19.3369C21.8496 19.0498 21.9492 18.7217 21.9434 18.3525C21.9434 17.9658 21.8408 17.623 21.6357 17.3242C21.4307 17.0254 21.126 16.7939 20.7217 16.6299C20.3232 16.46 19.8516 16.375 19.3066 16.375H18.1729V14.6084H19.3066C19.752 14.6084 20.1504 14.5322 20.502 14.3799C20.8535 14.2217 21.123 14.002 21.3105 13.7207C21.5039 13.4395 21.6006 13.1172 21.6006 12.7539C21.6006 12.4023 21.5156 12.0918 21.3457 11.8223C21.1816 11.5469 20.9443 11.333 20.6338 11.1807C20.3291 11.0283 19.9717 10.9521 19.5615 10.9521C19.1572 10.958 18.7852 11.0312 18.4453 11.1719C18.1055 11.3125 17.8301 11.5146 17.6191 11.7783C17.4082 12.042 17.2969 12.3496 17.2852 12.7012H15.0791C15.0967 11.998 15.3047 11.374 15.7031 10.8291C16.1074 10.2783 16.6465 9.85352 17.3203 9.55469C17.9941 9.25 18.7441 9.09766 19.5703 9.09766C20.4141 9.09766 21.1553 9.25586 21.7939 9.57227C22.4385 9.88281 22.9365 10.3076 23.2881 10.8467C23.6396 11.3799 23.8125 11.9717 23.8066 12.6221C23.8125 13.0908 23.7188 13.5156 23.5254 13.8965C23.3379 14.2773 23.0654 14.5938 22.708 14.8457C22.3506 15.0977 21.9404 15.2734 21.4775 15.373V15.4697C22.0693 15.5518 22.5762 15.7275 22.998 15.9971C23.4258 16.2607 23.748 16.6064 23.9648 17.0342C24.1816 17.4561 24.29 17.9336 24.29 18.4668C24.29 19.1699 24.085 19.8027 23.6748 20.3652C23.2705 20.9277 22.7051 21.3701 21.9785 21.6924C21.2578 22.0146 20.4434 22.1758 19.5352 22.1758Z" fill="white"/>
</svg>
